<svg xmlns="http://www.w3.org/2000/svg" version="1.1" xmlns:xlink="http://www.w3.org/1999/xlink" xmlns:svgjs="http://svgjs.dev/svgjs" width="1000" height="1000" viewBox="0 0 1000 1000"><rect width="1000" height="1000" fill="#000000"></rect><g transform="matrix(0.7,0,0,0.7,149.57575757575756,282.1265587044535)"><svg viewBox="0 0 396 247" data-background-color="#6936f5" preserveAspectRatio="xMidYMid meet" height="623" width="1000" xmlns="http://www.w3.org/2000/svg" xmlns:xlink="http://www.w3.org/1999/xlink"><g id="tight-bounds" transform="matrix(1,0,0,1,0.2400000000000091,-0.09999999999999432)"><svg viewBox="0 0 395.52 247.2" height="247.2" width="395.52"><g><svg></svg></g><g><svg viewBox="0 0 395.52 247.2" height="247.2" width="395.52"><g transform="matrix(1,0,0,1,70.25684210526316,37.08)"><svg viewBox="0 0 255.00631578947366 173.04" height="173.04" width="255.00631578947366"><g><svg viewBox="0 0 255.00631578947366 173.04" height="173.04" width="255.00631578947366"><g><svg viewBox="0 0 255.00631578947366 173.04" height="173.04" width="255.00631578947366"><g><svg viewBox="0 0 255.00631578947366 173.04" height="173.04" width="255.00631578947366"><g><svg viewBox="0 0 255.00631578947366 173.04" height="173.04" width="255.00631578947366"><g><svg viewBox="0 0 255.00631578947366 173.04" height="173.04" width="255.00631578947366"><g transform="matrix(1,0,0,1,0,0)"><svg width="255.00631578947366" viewBox="3.549999952316284 -35.5 53.20000076293945 36.099998474121094" height="173.04" data-palette-color="#ffffff"><path d="M22-35L22 0 19.25 0.25Q16 0.6 14.15 0.6L14.15 0.6Q12.3 0.6 10.68 0.25 9.05-0.1 7.45-0.9L7.45-0.9Q5.65-1.8 4.6-3.55 3.55-5.3 3.55-7.85L3.55-7.85 3.55-17.3Q3.55-22.55 7.8-24.5L7.8-24.5Q9.85-25.45 12.8-25.45L12.8-25.45Q14.75-25.45 16.57-25 18.4-24.55 19.75-23.75L19.75-23.75 19.75-35 22-35ZM19.75-21.75Q18.4-22.5 16.5-22.98 14.6-23.45 12.8-23.45L12.8-23.45Q9.75-23.45 7.75-21.95 5.75-20.45 5.75-17.15L5.75-17.15 5.75-7.8Q5.75-4.45 8.13-2.98 10.5-1.5 14.45-1.5L14.45-1.5Q16.85-1.5 19.75-2L19.75-2 19.75-21.75ZM27.65-34.15Q27.65-34.7 28.07-35.1 28.5-35.5 29.05-35.5L29.05-35.5Q29.6-35.5 30-35.1 30.4-34.7 30.4-34.15L30.4-34.15Q30.4-33.6 30-33.18 29.6-32.75 29.05-32.75L29.05-32.75Q28.5-32.75 28.07-33.18 27.65-33.6 27.65-34.15L27.65-34.15ZM30.15-25.05L30.15 0 27.9 0 27.9-25.05 30.15-25.05ZM40.55-35L40.55-23.75Q41.85-24.55 43.7-25 45.55-25.45 47.5-25.45L47.5-25.45Q50.45-25.45 52.5-24.5L52.5-24.5Q56.75-22.55 56.75-17.3L56.75-17.3 56.75-7.85Q56.75-5.3 55.7-3.55 54.65-1.8 52.84-0.9L52.84-0.9Q51.25-0.1 49.62 0.25 48 0.6 46.15 0.6L46.15 0.6Q44.3 0.6 41.05 0.25L41.05 0.25 38.3 0 38.3-35 40.55-35ZM40.55-2Q43.45-1.5 45.85-1.5L45.85-1.5Q49.8-1.5 52.17-2.98 54.55-4.45 54.55-7.8L54.55-7.8 54.55-17.15Q54.55-20.45 52.55-21.95 50.55-23.45 47.5-23.45L47.5-23.45Q45.7-23.45 43.8-22.98 41.9-22.5 40.55-21.75L40.55-21.75 40.55-2Z" opacity="1" transform="matrix(1,0,0,1,0,0)" fill="#ffffff" class="undefined-text-0" data-fill-palette-color="primary" id="text-0"></path></svg></g></svg></g></svg></g></svg></g><g></g></svg></g></svg></g></svg></g><g mask="url(#91117bba-e588-4b68-8b5f-13e033b66ac4)"><g transform="matrix(5.702325581395349, 0, 0, 5.702325581395349, 75.16, 1)"><svg xmlns="http://www.w3.org/2000/svg" xmlns:xlink="http://www.w3.org/1999/xlink" version="1.1" x="0" y="0" viewBox="0 0 43 43" enable-background="new 0 0 43 43" xml:space="preserve" height="43" width="43" class="icon-none" data-fill-palette-color="accent" id="none"><g fill="#ffffff" data-fill-palette-color="accent"><g fill="#ffffff" data-fill-palette-color="accent"><path d="M0 0v43h43V0H0zM40 40H3V3h37V40zM21.5 32C28.9 32 35 25.9 35 18.5h-3C32 24.3 27.3 29 21.5 29S11 24.3 11 18.5H8C8 25.9 14.1 32 21.5 32zM17.2 16.5c1.1 0 2-0.9 2-2 0-1.1-0.9-2-2-2s-2 0.9-2 2C15.2 15.6 16.1 16.5 17.2 16.5zM25.5 16.5c1.1 0 2-0.9 2-2 0-1.1-0.9-2-2-2s-2 0.9-2 2C23.5 15.6 24.4 16.5 25.5 16.5z" fill="#ffffff" data-fill-palette-color="accent"></path></g></g></svg></g></g></svg></g><defs><mask id="91117bba-e588-4b68-8b5f-13e033b66ac4"><rect width="640" height="400" fill="white"></rect><rect width="280.50694736842104" height="254.74118208" fill="black" x="179.74652631578948" y="72.62940896" id="transform-me" transform="matrix(1,0,0,1,-122.24000000000001,-76.4)"></rect></mask></defs></svg><rect width="395.52" height="247.2" fill="none" stroke="none" visibility="hidden"></rect></g></svg></g></svg>